<?xml version="1.0" standalone="no"?>
<!DOCTYPE svg PUBLIC "-//W3C//DTD SVG 20010904//EN"
 "http://www.w3.org/TR/2001/REC-SVG-20010904/DTD/svg10.dtd">
<svg version="1.0" xmlns="http://www.w3.org/2000/svg"
 width="512.000000pt" height="512.000000pt" viewBox="0 0 512.000000 512.000000"
 preserveAspectRatio="xMidYMid meet">
<metadata>
Created by potrace 1.14, written by Peter Selinger 2001-2017
</metadata>
<g transform="translate(0.000000,512.000000) scale(0.100000,-0.100000)"
fill="#000000" stroke="none">
<path d="M2305 4864 c-33 -8 -103 -35 -155 -61 -80 -39 -108 -59 -185 -137
l-90 -91 -909 -1653 c-646 -1175 -916 -1675 -933 -1730 -31 -94 -42 -268 -23
-365 49 -251 237 -468 481 -553 l84 -29 1955 -3 c2169 -3 2022 -7 2169 63 140
67 238 153 315 279 70 112 98 208 104 352 5 145 -16 246 -77 364 -61 118
-1961 3264 -2006 3320 -88 111 -232 202 -381 240 -93 24 -258 26 -349 4z m286
-514 c84 -42 134 -108 145 -192 4 -33 -170 -1646 -200 -1856 -3 -17 -2 -32 2
-32 4 0 111 180 237 401 248 433 265 456 359 484 106 32 193 9 271 -69 59 -59
80 -116 73 -199 -4 -49 -50 -134 -567 -1038 -315 -550 -579 -1001 -600 -1023
-101 -108 -286 -105 -387 6 -48 53 -64 95 -64 165 0 32 45 456 100 943 55 487
99 893 98 902 -2 10 -261 -434 -576 -986 -389 -681 -585 -1014 -610 -1038 -50
-48 -91 -67 -159 -74 -102 -11 -207 45 -256 133 -33 63 -42 126 -24 183 8 25
420 756 916 1625 972 1702 938 1647 1039 1680 61 19 147 13 203 -15z m1251
-2056 c61 -20 121 -73 149 -131 27 -56 30 -149 6 -203 -9 -19 -101 -183 -205
-365 l-189 -330 441 -5 c437 -5 441 -5 493 -29 205 -92 210 -357 9 -464 l-41
-22 -694 -3 c-761 -3 -744 -4 -828 57 -76 55 -117 174 -90 261 22 73 634 1139
678 1181 66 64 176 86 271 53z"/>
</g>
</svg>
